<svg width="160" height="48" viewBox="0 0 160 48" fill="none" xmlns="http://www.w3.org/2000/svg">
  <!-- Monochrome version for merchandise -->
  <g transform="translate(0, 8)">
    <path d="M4 0C2.89543 0 2 0.895431 2 2V6C2 6.55228 1.55228 7 1 7C0.447715 7 0 6.55228 0 6V2C0 0.895431 0.895431 0 2 0H10C11.1046 0 12 0.895431 12 2V6C12 6.55228 11.5523 7 11 7C10.4477 7 10 6.55228 10 6V2C10 0.895431 9.10457 0 8 0H4Z" fill="#000000"/>
    <path d="M4 32C2.89543 32 2 31.1046 2 30V26C2 25.4477 1.55228 25 1 25C0.447715 25 0 25.4477 0 26V30C0 31.1046 0.895431 32 2 32H10C11.1046 32 12 31.1046 12 30V26C12 25.4477 11.5523 25 11 25C10.4477 25 10 25.4477 10 26V30C10 31.1046 9.10457 32 8 32H4Z" fill="#000000"/>
    <rect x="2" y="0" width="8" height="32" rx="0.5" fill="#000000"/>
    <circle cx="6" cy="8" r="0.5" fill="#FFFFFF"/>
    <circle cx="6" cy="24" r="0.5" fill="#FFFFFF"/>
    <path d="M3 12H9M6 12V18" stroke="#FFFFFF" stroke-width="1.2" stroke-linecap="round" stroke-linejoin="round"/>
  </g>
  
  <!-- Text -->
  <text x="20" y="30" font-family="system-ui, -apple-system, 'SF Pro Display', -apple-system, BlinkMacSystemFont, 'Segoe UI', sans-serif" font-size="24" font-weight="600" letter-spacing="-0.02em" fill="#000000">Tickit</text>
</svg>

