<svg width="320" height="96" viewBox="0 0 320 96" fill="none" xmlns="http://www.w3.org/2000/svg">
  <!-- Icon -->
  <g transform="translate(0, 16)">
    <path d="M8 0C5.79086 0 4 1.79086 4 4V12C4 13.1046 3.10457 14 2 14C0.895431 14 0 13.1046 0 12V4C0 1.79086 1.79086 0 4 0H20C22.2091 0 24 1.79086 24 4V12C24 13.1046 23.1046 14 22 14C20.8954 14 20 13.1046 20 12V4C20 1.79086 18.2091 0 16 0H8Z" fill="#0F172A"/>
    <path d="M8 64C5.79086 64 4 62.2091 4 60V52C4 50.8954 3.10457 50 2 50C0.895431 50 0 50.8954 0 52V60C0 62.2091 1.79086 64 4 64H20C22.2091 64 24 62.2091 24 60V52C24 50.8954 23.1046 50 22 50C20.8954 50 20 50.8954 20 52V60C20 62.2091 18.2091 64 16 64H8Z" fill="#0F172A"/>
    <rect x="4" y="0" width="16" height="64" rx="1" fill="#0F172A"/>
    <circle cx="12" cy="16" r="1" fill="#FFFFFF"/>
    <circle cx="12" cy="48" r="1" fill="#FFFFFF"/>
    <path d="M6 24H18M12 24V40" stroke="#FFFFFF" stroke-width="2.4" stroke-linecap="round" stroke-linejoin="round"/>
  </g>
  
  <!-- Text -->
  <text x="40" y="60" font-family="system-ui, -apple-system, 'SF Pro Display', -apple-system, BlinkMacSystemFont, 'Segoe UI', sans-serif" font-size="48" font-weight="600" letter-spacing="-0.03em" fill="#0F172A">Tixhub</text>
</svg>

